<svg width="24" height="24" viewBox="0 0 24 24" fill="none" xmlns="http://www.w3.org/2000/svg">
<path d="M4.51489 8.471V15.527C4.51489 15.977 4.75989 16.394 5.15489 16.619L11.3599 20.148C11.5551 20.2584 11.7756 20.3165 11.9999 20.3165C12.2242 20.3165 12.4447 20.2584 12.6399 20.148L18.8429 16.618C19.2389 16.394 19.4829 15.978 19.4829 15.528V8.47C19.4829 8.02 19.2389 7.603 18.8429 7.379L12.6399 3.85C12.4447 3.73958 12.2242 3.68155 11.9999 3.68155C11.7756 3.68155 11.5551 3.73958 11.3599 3.85L5.15489 7.38C4.96101 7.48863 4.7996 7.64699 4.68728 7.83875C4.57496 8.03052 4.5148 8.24876 4.51489 8.471Z" fill="#213147"/>
<path d="M13.353 13.368L12.468 15.758C12.4439 15.8242 12.4439 15.8968 12.468 15.963L13.991 20.075L15.751 19.074L13.638 13.368C13.6272 13.3389 13.6078 13.3138 13.5823 13.2961C13.5568 13.2784 13.5265 13.2689 13.4955 13.2689C13.4645 13.2689 13.4342 13.2784 13.4087 13.2961C13.3832 13.3138 13.3638 13.3389 13.353 13.368ZM15.127 9.349C15.1162 9.31991 15.0968 9.29482 15.0713 9.27711C15.0458 9.25939 15.0155 9.24989 14.9845 9.24989C14.9535 9.24989 14.9232 9.25939 14.8977 9.27711C14.8722 9.29482 14.8528 9.31991 14.842 9.349L13.957 11.739C13.9329 11.8052 13.9329 11.8778 13.957 11.944L16.451 18.676L18.212 17.675L15.127 9.349Z" fill="#12AAFF"/>
<path d="M11.9979 4.115C12.0418 4.11664 12.0848 4.12791 12.1239 4.148L18.8389 7.966C18.8767 7.9876 18.9083 8.01871 18.9304 8.05625C18.9525 8.09379 18.9644 8.13645 18.9649 8.18V15.815C18.9649 15.904 18.9169 15.985 18.8389 16.029L12.1239 19.848C12.0855 19.8696 12.042 19.8806 11.9979 19.88C11.9544 19.8785 11.9118 19.8676 11.8729 19.848L5.1579 16.033C5.11993 16.0113 5.08831 15.98 5.0662 15.9423C5.04409 15.9046 5.03227 15.8617 5.0319 15.818V8.182C5.0319 8.093 5.0799 8.012 5.1579 7.967L11.8729 4.149C11.911 4.1273 11.954 4.11561 11.9979 4.115ZM11.9979 3C11.7599 3 11.5199 3.06 11.3059 3.183L4.5929 7C4.38312 7.11806 4.20843 7.28969 4.08667 7.49735C3.96492 7.70502 3.90047 7.94128 3.8999 8.182V15.817C3.8999 16.304 4.1639 16.755 4.5929 16.998L11.3069 20.817C11.5184 20.9363 11.7571 20.9991 11.9999 20.9991C12.2427 20.9991 12.4814 20.9363 12.6929 20.817L19.4069 16.999C19.6167 16.8809 19.7914 16.7093 19.9131 16.5016C20.0349 16.294 20.0993 16.0577 20.0999 15.817V8.182C20.0993 7.94128 20.0349 7.70502 19.9131 7.49735C19.7914 7.28969 19.6167 7.11806 19.4069 7L12.6909 3.183C12.4797 3.0629 12.2409 2.99983 11.9979 3Z" fill="#9DCCED"/>
<path d="M7.55884 18.685L8.17584 17.019L9.41984 18.037L8.25684 19.083L7.55884 18.685Z" fill="#213147"/>
<path d="M11.4329 7.635H9.73088C9.66883 7.63433 9.6081 7.65292 9.55706 7.6882C9.50602 7.72348 9.46718 7.77372 9.44588 7.832L5.79688 17.684L7.55788 18.685L11.5759 7.836C11.5839 7.81325 11.5864 7.78889 11.583 7.765C11.5796 7.7411 11.5705 7.71837 11.5565 7.69874C11.5424 7.67911 11.5239 7.66316 11.5024 7.65224C11.4808 7.64131 11.457 7.63474 11.4329 7.635ZM14.4119 7.635H12.7089C12.647 7.63454 12.5865 7.65322 12.5357 7.68849C12.4848 7.72375 12.4461 7.77388 12.4249 7.832L8.25788 19.082L10.0189 20.082L14.5539 7.836C14.5619 7.81333 14.5643 7.78906 14.561 7.76525C14.5577 7.74143 14.5487 7.71876 14.5348 7.69916C14.5208 7.67955 14.5024 7.66358 14.481 7.65259C14.4596 7.64159 14.4359 7.6349 14.4119 7.635Z" fill="white"/>
</svg>
