<svg width="16" height="16" viewBox="0 0 16 16" fill="none" xmlns="http://www.w3.org/2000/svg">
<path d="M8 16C12.4183 16 16 12.4183 16 8C16 3.58172 12.4183 0 8 0C3.58172 0 0 3.58172 0 8C0 12.4183 3.58172 16 8 16Z" fill="#26A17B"/>
<path fill-rule="evenodd" clip-rule="evenodd" d="M8.96102 8.69142V8.69042C8.90602 8.69442 8.62252 8.71142 7.99002 8.71142C7.48502 8.71142 7.12952 8.69642 7.00452 8.69042V8.69192C5.06052 8.60642 3.60952 8.26792 3.60952 7.86292C3.60952 7.45792 5.06052 7.11992 7.00452 7.03292V8.35492C7.13152 8.36392 7.49552 8.38542 7.99852 8.38542C8.60202 8.38542 8.90452 8.36042 8.96102 8.35542V7.03392C10.901 7.12042 12.3485 7.45892 12.3485 7.86292C12.3485 8.26792 10.901 8.60542 8.96102 8.69142ZM8.96102 6.89642V5.71342H11.668V3.90942H4.29752V5.71342H7.00452V6.89592C4.80452 6.99692 3.15002 7.43292 3.15002 7.95492C3.15002 8.47692 4.80452 8.91242 7.00452 9.01392V12.8049H8.96102V9.01292C11.1575 8.91192 12.808 8.47642 12.808 7.95492C12.808 7.43342 11.1575 6.99792 8.96102 6.89642Z" fill="white"/>
</svg>
