<svg width="21" height="21" viewBox="0 0 21 21" fill="none" xmlns="http://www.w3.org/2000/svg">
<circle cx="10.5" cy="10.5" r="10.5" fill="#9032D2"/>
<path d="M12.91 13.171L15.756 11.5275C15.83 11.4845 15.8915 11.4229 15.9343 11.3488C15.9771 11.2746 15.9998 11.1906 16 11.105V7.81749C15.9999 7.73181 15.9773 7.64766 15.9344 7.57343C15.8916 7.49921 15.8301 7.43751 15.756 7.39449L12.9095 5.75149C12.8352 5.70877 12.751 5.68628 12.6652 5.68628C12.5795 5.68628 12.4953 5.70877 12.421 5.75149L9.575 7.39449C9.5008 7.43745 9.43917 7.49912 9.39627 7.57335C9.35336 7.64757 9.33069 7.73176 9.3305 7.81749V13.691L7.335 14.843L5.339 13.691V11.386L7.335 10.234L8.6515 10.994V9.44799L7.579 8.82899C7.50469 8.78627 7.42047 8.76378 7.33475 8.76378C7.24903 8.76378 7.16481 8.78627 7.0905 8.82899L4.244 10.4725C4.16989 10.5155 4.10837 10.5772 4.06555 10.6514C4.02274 10.7257 4.00014 10.8098 4 10.8955V14.182C4.00005 14.2678 4.02261 14.352 4.06543 14.4263C4.10825 14.5007 4.16982 14.5624 4.244 14.6055L7.0905 16.2485C7.16481 16.2912 7.24903 16.3137 7.33475 16.3137C7.42047 16.3137 7.50469 16.2912 7.579 16.2485L10.425 14.6055C10.4992 14.5625 10.5608 14.5009 10.6037 14.4266C10.6466 14.3524 10.6693 14.2682 10.6695 14.1825V8.30899L10.7055 8.28849L12.6655 7.15699L14.6605 8.30949V10.614L12.6655 11.766L11.3505 11.0075V12.5535L12.4205 13.1715C12.4949 13.2143 12.5792 13.2369 12.665 13.2369C12.7508 13.2369 12.8351 13.2143 12.9095 13.1715L12.91 13.171Z" fill="#E6E6E6"/>
</svg>
