<svg width="24" height="24" viewBox="0 0 24 24" fill="none" xmlns="http://www.w3.org/2000/svg">
<path fill-rule="evenodd" clip-rule="evenodd" d="M3.966 15.8C4.61867 16.2667 5.456 16.5 6.478 16.5C7.714 16.5 8.70133 16.2207 9.44 15.662C10.1787 15.0953 10.6983 14.2413 10.999 13.1C11.179 12.4 11.3337 11.679 11.463 10.937C11.505 10.6717 11.5263 10.4507 11.527 10.274C11.527 9.69133 11.3767 9.19166 11.076 8.77499C10.7661 8.34353 10.3358 8.01308 9.839 7.82499C9.315 7.60833 8.72267 7.49999 8.062 7.49999C5.63267 7.49999 4.126 8.64566 3.542 10.937C3.36306 11.6535 3.204 12.3747 3.065 13.1C3.02633 13.3233 3.00467 13.548 3 13.774C3 14.65 3.322 15.3253 3.966 15.8ZM8.616 13.025C8.369 13.982 7.69 14.605 6.658 14.605C5.638 14.605 5.29 13.915 5.474 13.025C5.602 12.3359 5.75678 11.652 5.938 10.975C6.203 9.94099 6.828 9.39499 7.894 9.39499C8.911 9.39499 9.242 10.075 9.067 10.975C8.94063 11.6634 8.7902 12.3471 8.616 13.025ZM12.518 16.41C12.5687 16.47 12.64 16.4997 12.732 16.499H14.436C14.5232 16.4975 14.6072 16.4661 14.674 16.41C14.7484 16.3535 14.7978 16.2703 14.812 16.178L15.35 13.658H17.083C18.177 13.658 19.033 13.128 19.659 12.656C20.2943 12.1847 20.7163 11.456 20.925 10.47C20.975 10.238 21 10.0147 21 9.79999C21 9.05533 20.7163 8.48533 20.149 8.08999C19.589 7.69599 18.8457 7.49899 17.919 7.49899H14.586C14.4987 7.50075 14.4146 7.53253 14.348 7.58899C14.2752 7.64683 14.2261 7.72938 14.21 7.82099L12.48 16.177C12.4704 16.2162 12.4688 16.257 12.4753 16.2969C12.4819 16.3367 12.4964 16.3759 12.518 16.41ZM18.608 10.443C18.451 11.132 17.851 11.762 17.146 11.762H15.706L16.202 9.39299H17.705C18.217 9.39299 18.645 9.49499 18.645 10.058C18.645 10.168 18.6327 10.2963 18.608 10.443Z" fill="#FE0420"/>
</svg>
