<svg width="21" height="21" viewBox="0 0 21 21" fill="none" xmlns="http://www.w3.org/2000/svg">
<path d="M16.1114 6.91414C16.0131 7.00426 15.8851 7.05503 15.7517 7.05676H3.13249C2.68449 7.05676 2.45874 6.54489 2.76849 6.24476L4.84136 4.24626C4.93767 4.15297 5.06603 4.10006 5.20011 4.09839H17.8675C18.3199 4.09839 18.5412 4.61464 18.2262 4.91651L16.1114 6.91414Z" fill="url(#paint0_linear_77_32)"/>
<path d="M16.1114 16.763C16.0124 16.8515 15.8845 16.9007 15.7517 16.9013H3.13249C2.68449 16.9013 2.45874 16.3938 2.76849 16.0936L4.84136 14.0899C4.93849 13.9985 5.06675 13.9475 5.20011 13.9473H17.8675C18.3199 13.9473 18.5412 14.46 18.2262 14.7593L16.1114 16.763Z" fill="url(#paint1_linear_77_32)"/>
<path d="M16.1114 9.16388C16.0124 9.07535 15.8845 9.02616 15.7517 9.02563H3.13249C2.68449 9.02563 2.45874 9.53314 2.76849 9.83326L4.84136 11.837C4.93849 11.9271 5.06624 11.977 5.20011 11.9796H17.8675C18.3199 11.9796 18.5412 11.4669 18.2262 11.1676L16.1114 9.16388Z" fill="url(#paint2_linear_77_32)"/>
<defs>
<linearGradient id="paint0_linear_77_32" x1="2.62586" y1="48.1608" x2="18.7766" y2="48.012" gradientUnits="userSpaceOnUse">
<stop stop-color="#599DB0"/>
<stop offset="1" stop-color="#47F8C3"/>
</linearGradient>
<linearGradient id="paint1_linear_77_32" x1="2.62586" y1="8.02176" x2="18.6734" y2="7.89839" gradientUnits="userSpaceOnUse">
<stop stop-color="#C44FE2"/>
<stop offset="1" stop-color="#73B0D0"/>
</linearGradient>
<linearGradient id="paint2_linear_77_32" x1="3.53149" y1="10.5026" x2="17.7651" y2="10.5026" gradientUnits="userSpaceOnUse">
<stop stop-color="#778CBF"/>
<stop offset="1" stop-color="#5DCDC9"/>
</linearGradient>
</defs>
</svg>
